<svg width="32" height="31" viewBox="0 0 32 31" fill="none" xmlns="http://www.w3.org/2000/svg">
<path d="M24.9985 28.5017H2.99854V6.50171H15.2185C15.7708 6.50171 16.2185 6.05399 16.2185 5.50171C16.2185 4.94942 15.7708 4.50171 15.2185 4.50171H2.99854C2.4681 4.50171 1.95939 4.71242 1.58432 5.0875C1.20925 5.46257 0.998535 5.97128 0.998535 6.50171V28.5017C0.998535 29.0321 1.20925 29.5408 1.58432 29.9159C1.95939 30.291 2.4681 30.5017 2.99854 30.5017H24.9985C25.529 30.5017 26.0377 30.291 26.4127 29.9159C26.7878 29.5408 26.9985 29.0321 26.9985 28.5017V16.5017C26.9985 15.9494 26.5508 15.5017 25.9985 15.5017C25.4463 15.5017 24.9985 15.9494 24.9985 16.5017V28.5017Z" fill="white"/>
<path d="M30.5285 4.34165L27.1585 0.971653C27.0089 0.821684 26.8313 0.702697 26.6356 0.621511C26.44 0.540325 26.2303 0.498535 26.0185 0.498535C25.8067 0.498535 25.597 0.540325 25.4014 0.621511C25.2057 0.702697 25.0281 0.821684 24.8785 0.971653L11.7718 14.1548C11.3775 14.5515 11.1018 15.0504 10.9761 15.5954L10.0585 19.5717C10.0112 19.8048 10.0162 20.0456 10.073 20.2766C10.1299 20.5076 10.2373 20.7231 10.3874 20.9077C10.5375 21.0922 10.7267 21.2412 10.9413 21.3439C11.1559 21.4466 11.3906 21.5005 11.6285 21.5017C11.7515 21.5152 11.8755 21.5152 11.9985 21.5017L15.9855 20.6221C16.5488 20.4978 17.0644 20.2136 17.4705 19.8038L30.5285 6.62165C30.6785 6.47209 30.7974 6.29441 30.8786 6.09879C30.9598 5.90317 31.0016 5.69345 31.0016 5.48165C31.0016 5.26985 30.9598 5.06014 30.8786 4.86451C30.7974 4.66889 30.6785 4.49121 30.5285 4.34165ZM15.8085 18.5817L12.1485 19.3917L12.9985 15.7617L23.3185 5.37165L26.1385 8.19165L15.8085 18.5817ZM27.2685 7.06165L24.4485 4.24165L25.9985 2.66165L28.8385 5.50165L27.2685 7.06165Z" fill="white"/>
</svg>
