<svg width="30" height="31" viewBox="0 0 30 31" fill="none" xmlns="http://www.w3.org/2000/svg">
<path d="M22 6.49979L22 24.4998C21.9995 25.0301 21.7886 25.5385 21.4136 25.9134C21.0387 26.2884 20.5303 26.4993 20 26.4998L16 26.4998C15.4697 26.4993 14.9613 26.2884 14.5864 25.9134C14.2114 25.5385 14.0005 25.0301 14 24.4998L14 6.49979C14.0005 5.96952 14.2114 5.46112 14.5864 5.08616C14.9613 4.7112 15.4697 4.50032 16 4.49979L20 4.49979C20.5303 4.50032 21.0387 4.7112 21.4136 5.08616C21.7886 5.46112 21.9995 5.96952 22 6.49979ZM16 24.4998L20 24.4998L20 6.49979L16 6.49979L16 24.4998ZM16 6.49979L16 24.4998C15.9995 25.0301 15.7886 25.5384 15.4136 25.9134C15.0387 26.2883 14.5303 26.4992 14 26.4998L10 26.4998C9.46973 26.4992 8.96133 26.2883 8.58637 25.9134C8.21141 25.5384 8.00053 25.03 8 24.4998L8 6.49977C8.00053 5.9695 8.21141 5.4611 8.58637 5.08614C8.96133 4.71118 9.46973 4.5003 10 4.49977L14 4.49977C14.5303 4.5003 15.0387 4.71118 15.4136 5.08614C15.7886 5.4611 15.9995 5.96952 16 6.49979ZM10 24.4998L14 24.4998L14 6.49979L10 6.49977L10 24.4998ZM10 6.49977L10 24.4998C9.99947 25.03 9.78859 25.5384 9.41363 25.9134C9.03867 26.2883 8.53027 26.4992 8 26.4998L4 26.4998C3.46973 26.4992 2.96133 26.2883 2.58637 25.9134C2.21141 25.5384 2.00053 25.03 2 24.4998L2 6.49977C2.00053 5.9695 2.21141 5.4611 2.58637 5.08614C2.96133 4.71118 3.46973 4.5003 4 4.49977L8 4.49977C8.53027 4.5003 9.03867 4.71118 9.41363 5.08614C9.78859 5.4611 9.99947 5.9695 10 6.49977ZM4 24.4998L8 24.4998L8 6.49977L4 6.49977L4 24.4998Z" fill="white"/>
<path d="M28 6.50001L28 24.5C27.9995 25.0303 27.7886 25.5387 27.4136 25.9136C27.0387 26.2886 26.5303 26.4995 26 26.5L22 26.5C21.4697 26.4995 20.9613 26.2886 20.5864 25.9136C20.2114 25.5387 20.0005 25.0301 20 24.4998L20 6.49979C20.0005 5.96952 20.2114 5.46134 20.5864 5.08638C20.9613 4.71142 21.4697 4.50054 22 4.50001L26 4.50001C26.5303 4.50054 27.0387 4.71142 27.4136 5.08638C27.7886 5.46134 27.9995 5.96974 28 6.50001ZM22 24.4998L26 24.5L26 6.50001L22 6.49979L22 24.4998Z" fill="white"/>
</svg>
