<svg width="30" height="31" viewBox="0 0 30 31" fill="none" xmlns="http://www.w3.org/2000/svg">
<path d="M8.30303 27.3462H22.2424V26.35C21.2667 25.5333 20.1864 24.9211 19.0015 24.5132C17.8167 24.1044 16.5737 23.9 15.2727 23.9C13.9717 23.9 12.7288 24.1044 11.5439 24.5132C10.3591 24.9211 9.27879 25.5333 8.30303 26.35V27.3462ZM5.31818 25.09C6.57273 23.8533 8.22776 22.8789 9.88933 22.1668C11.55 21.4556 13.3444 21.1 15.2727 21.1C17.201 21.1 18.9959 21.4556 20.6575 22.1668C22.3182 22.8789 23.7 23.9556 24.9545 25.1923L25.0303 6.88461H5.31818V25.09ZM15.2727 18.3C13.9253 18.3 12.7753 17.8217 11.8227 16.865C10.8702 15.9083 10.3939 14.7533 10.3939 13.4C10.3939 12.0467 10.8702 10.8917 11.8227 9.935C12.7753 8.97833 13.9253 8.5 15.2727 8.5C16.6202 8.5 17.7702 8.97833 18.7227 9.935C19.6753 10.8917 20.1515 12.0467 20.1515 13.4C20.1515 14.7533 19.6753 15.9083 18.7227 16.865C17.7702 17.8217 16.6202 18.3 15.2727 18.3ZM15.2727 15.5C15.8535 15.5 16.347 15.2956 16.7531 14.8868C17.1601 14.4789 17.3636 13.9833 17.3636 13.4C17.3636 12.8167 17.1601 12.3211 16.7531 11.9132C16.347 11.5044 15.8535 11.3 15.2727 11.3C14.6919 11.3 14.1985 11.5044 13.7924 11.9132C13.3853 12.3211 13.1818 12.8167 13.1818 13.4C13.1818 13.9833 13.3853 14.4789 13.7924 14.8868C14.1985 15.2956 14.6919 15.5 15.2727 15.5ZM4.13087 29.5C3.58074 29.5 3.13392 29.0556 3.13089 28.5055L3.00554 5.73627C3.00248 5.18185 3.45108 4.73077 4.00552 4.73077H6.90909V2.5C6.90909 1.94772 7.35681 1.5 7.90909 1.5H8.69697C9.24925 1.5 9.69697 1.94772 9.69697 2.5V4.73077H20.8485V2.5C20.8485 1.94772 21.2962 1.5 21.8485 1.5H22.6641C23.2054 1.5 23.6485 1.93076 23.6637 2.47187L23.7273 4.73077H26C26.5523 4.73077 27 5.17848 27 5.73077V28.5C27 29.0523 26.5523 29.5 26 29.5L4.13087 29.5Z" fill="#FFFFFF"/>
</svg>
