<svg width="30" height="31" viewBox="0 0 30 31" fill="none" xmlns="http://www.w3.org/2000/svg">
<path d="M24 4.5H6C4.89543 4.5 4 5.39648 4 6.50105C4 6.52939 4 6.54928 4 6.55917V24.5592C4 25.6311 4.86998 26.5 5.94187 26.5C5.97009 26.5 5.98998 26.5 5.99999 26.5H24C24.01 26.5 24.0299 26.5 24.0581 26.5C25.13 26.5 26 25.6311 26 24.5592V6.55915C26 6.54925 26 6.52937 26 6.50104C26 5.39648 25.1046 4.5 24 4.5ZM17 24.5592H6V16.5591H17V24.5592ZM17 14.5591H6V6.55917L17 6.55915V14.5591ZM24 24.5592H19V6.55917H24V24.5592Z" fill="white"/>
</svg>
