<svg width="40" height="40" viewBox="0 0 40 40" fill="none" xmlns="http://www.w3.org/2000/svg">
<circle cx="20" cy="20" r="20" fill="#FF3D00"/>
<g clip-path="url(#clip0_353_2523)">
<path d="M29.9143 27.4421C29.6469 27.4426 29.3864 27.3562 29.1712 27.1957L19.7677 20.1758L10.3642 27.1957C10.2322 27.2944 10.0823 27.3659 9.92295 27.406C9.76364 27.4461 9.59809 27.4541 9.43574 27.4294C9.27339 27.4048 9.11743 27.348 8.97676 27.2624C8.83609 27.1767 8.71347 27.0639 8.61589 26.9303C8.51831 26.7967 8.44769 26.645 8.40806 26.4838C8.36844 26.3226 8.36057 26.155 8.38492 25.9908C8.43411 25.659 8.61152 25.3605 8.87814 25.1611L19.0247 17.5788C19.2397 17.4178 19.5002 17.3308 19.7677 17.3308C20.0353 17.3308 20.2957 17.4178 20.5108 17.5788L30.6573 25.1611C30.8692 25.3191 31.0263 25.5408 31.1062 25.7946C31.1862 26.0483 31.1848 26.3211 31.1024 26.574C31.0201 26.827 30.8608 27.0471 30.6474 27.203C30.434 27.3589 30.1774 27.4426 29.9143 27.4421Z" fill="white"/>
<path d="M29.9143 20.8076C29.6469 20.8081 29.3865 20.7217 29.1712 20.5612L19.7677 13.5413L10.3642 20.5612C10.0976 20.7606 9.76362 20.8447 9.43575 20.7949C9.10787 20.7451 8.81296 20.5656 8.6159 20.2958C8.41883 20.026 8.33575 19.688 8.38493 19.3562C8.43411 19.0244 8.61153 18.726 8.87814 18.5266L19.0247 10.9443C19.2397 10.7832 19.5002 10.6963 19.7677 10.6963C20.0353 10.6963 20.2957 10.7832 20.5108 10.9443L30.6573 18.5266C30.8692 18.6846 31.0263 18.9063 31.1062 19.16C31.1862 19.4138 31.1848 19.6866 31.1025 19.9395C31.0201 20.1924 30.8608 20.4126 30.6474 20.5685C30.434 20.7244 30.1774 20.8081 29.9143 20.8076Z" fill="white"/>
</g>
<defs>
<clipPath id="clip0_353_2523">
<rect width="22.7907" height="16.7442" fill="white" transform="translate(8.37256 10.698)"/>
</clipPath>
</defs>
</svg>
