<svg width="124" height="51" viewBox="0 0 124 51" fill="none" xmlns="http://www.w3.org/2000/svg">
<rect width="124" height="51" rx="10" fill="#2A3647"/>
<path d="M24.8029 23.0742H21.5366C21.4769 22.6516 21.3551 22.2763 21.1712 21.9482C20.9872 21.6151 20.7511 21.3317 20.4627 21.098C20.1744 20.8643 19.8413 20.6854 19.4634 20.5611C19.0906 20.4368 18.6854 20.3746 18.2479 20.3746C17.4574 20.3746 16.7688 20.571 16.1822 20.9638C15.5955 21.3516 15.1406 21.9183 14.8175 22.6641C14.4943 23.4048 14.3327 24.3047 14.3327 25.3636C14.3327 26.4524 14.4943 27.3672 14.8175 28.108C15.1456 28.8487 15.603 29.408 16.1896 29.7859C16.7763 30.1637 17.4549 30.3526 18.2255 30.3526C18.658 30.3526 19.0582 30.2955 19.4261 30.1811C19.799 30.0668 20.1296 29.9002 20.418 29.6815C20.7063 29.4577 20.945 29.1868 21.1339 28.8686C21.3278 28.5504 21.462 28.1875 21.5366 27.7798L24.8029 27.7947C24.7184 28.4957 24.5071 29.1719 24.169 29.8232C23.8359 30.4695 23.386 31.0487 22.8192 31.5607C22.2575 32.0678 21.5863 32.4705 20.8058 32.7688C20.0302 33.0621 19.1527 33.2088 18.1733 33.2088C16.8111 33.2088 15.593 32.9006 14.5192 32.2841C13.4503 31.6676 12.6051 30.7752 11.9837 29.6069C11.3672 28.4386 11.0589 27.0241 11.0589 25.3636C11.0589 23.6982 11.3722 22.2812 11.9986 21.1129C12.625 19.9446 13.4751 19.0547 14.549 18.4432C15.6229 17.8267 16.831 17.5185 18.1733 17.5185C19.0582 17.5185 19.8786 17.6428 20.6342 17.8913C21.3949 18.1399 22.0685 18.5028 22.6552 18.9801C23.2418 19.4524 23.7191 20.0316 24.087 20.7177C24.4599 21.4038 24.6985 22.1893 24.8029 23.0742ZM27.0588 33V21.5455H30.1387V23.544H30.258C30.4668 22.8331 30.8173 22.2962 31.3095 21.9332C31.8017 21.5653 32.3684 21.3814 33.0098 21.3814C33.1689 21.3814 33.3404 21.3913 33.5243 21.4112C33.7083 21.4311 33.8699 21.4585 34.0091 21.4933V24.3121C33.8599 24.2674 33.6536 24.2276 33.3901 24.1928C33.1266 24.158 32.8855 24.1406 32.6667 24.1406C32.1994 24.1406 31.7818 24.2425 31.4139 24.4464C31.051 24.6452 30.7626 24.9237 30.5488 25.2816C30.34 25.6396 30.2356 26.0522 30.2356 26.5195V33H27.0588ZM40.3385 33.2237C39.1602 33.2237 38.146 32.9851 37.2959 32.5078C36.4507 32.0256 35.7994 31.3445 35.3421 30.4645C34.8847 29.5795 34.656 28.533 34.656 27.3249C34.656 26.1467 34.8847 25.1126 35.3421 24.2227C35.7994 23.3327 36.4433 22.6392 37.2735 22.142C38.1088 21.6449 39.0882 21.3963 40.2117 21.3963C40.9674 21.3963 41.6709 21.5181 42.3222 21.7617C42.9784 22.0004 43.5502 22.3608 44.0374 22.843C44.5296 23.3253 44.9124 23.9318 45.1858 24.6626C45.4593 25.3885 45.596 26.2386 45.596 27.2131V28.0856H35.9237V26.1168H42.6056C42.6056 25.6594 42.5061 25.2543 42.3073 24.9013C42.1084 24.5483 41.8325 24.2724 41.4795 24.0735C41.1315 23.8697 40.7263 23.7678 40.2639 23.7678C39.7817 23.7678 39.3541 23.8796 38.9813 24.1033C38.6134 24.3221 38.325 24.6179 38.1162 24.9908C37.9074 25.3587 37.8005 25.7688 37.7955 26.2212V28.093C37.7955 28.6598 37.8999 29.1495 38.1088 29.5621C38.3225 29.9748 38.6233 30.293 39.0111 30.5167C39.3989 30.7404 39.8588 30.8523 40.3907 30.8523C40.7437 30.8523 41.0669 30.8026 41.3602 30.7031C41.6535 30.6037 41.9046 30.4545 42.1134 30.2557C42.3222 30.0568 42.4813 29.8132 42.5906 29.5249L45.5289 29.7188C45.3797 30.4247 45.074 31.0412 44.6116 31.5682C44.1542 32.0902 43.5626 32.4979 42.8367 32.7912C42.1159 33.0795 41.2831 33.2237 40.3385 33.2237ZM50.9355 33.2163C50.2046 33.2163 49.5534 33.0895 48.9816 32.8359C48.4099 32.5774 47.9575 32.1971 47.6244 31.695C47.2963 31.1879 47.1322 30.5565 47.1322 29.8008C47.1322 29.1644 47.249 28.63 47.4827 28.1974C47.7164 27.7649 48.0345 27.4169 48.4372 27.1534C48.8399 26.8899 49.2973 26.6911 49.8094 26.5568C50.3264 26.4226 50.8683 26.3281 51.4351 26.2734C52.1013 26.2038 52.6382 26.1392 53.0459 26.0795C53.4536 26.0149 53.7494 25.9205 53.9333 25.7962C54.1173 25.6719 54.2093 25.4879 54.2093 25.2443V25.1996C54.2093 24.7273 54.0601 24.3619 53.7618 24.1033C53.4685 23.8448 53.0509 23.7156 52.509 23.7156C51.9372 23.7156 51.4823 23.8423 51.1443 24.0959C50.8062 24.3445 50.5825 24.6577 50.4731 25.0355L47.5349 24.7969C47.684 24.1009 47.9774 23.4993 48.4149 22.9922C48.8524 22.4801 49.4166 22.0874 50.1077 21.8139C50.8037 21.5355 51.6091 21.3963 52.5239 21.3963C53.1602 21.3963 53.7693 21.4709 54.3509 21.62C54.9376 21.7692 55.4571 22.0004 55.9095 22.3136C56.3669 22.6268 56.7274 23.0295 56.9909 23.5217C57.2544 24.0089 57.3861 24.593 57.3861 25.2741V33H54.3733V31.4116H54.2838C54.0999 31.7695 53.8538 32.0852 53.5455 32.3587C53.2373 32.6271 52.8669 32.8384 52.4344 32.9925C52.0019 33.1417 51.5022 33.2163 50.9355 33.2163ZM51.8453 31.0238C52.3126 31.0238 52.7252 30.9318 53.0832 30.7479C53.4411 30.5589 53.722 30.3054 53.9259 29.9872C54.1297 29.669 54.2316 29.3086 54.2316 28.9059V27.6903C54.1322 27.755 53.9955 27.8146 53.8215 27.8693C53.6524 27.919 53.461 27.9663 53.2472 28.011C53.0335 28.0508 52.8197 28.0881 52.6059 28.1229C52.3921 28.1527 52.1982 28.18 52.0242 28.2049C51.6514 28.2596 51.3257 28.3466 51.0473 28.4659C50.7689 28.5852 50.5526 28.7468 50.3985 28.9506C50.2444 29.1495 50.1673 29.3981 50.1673 29.6964C50.1673 30.1289 50.324 30.4595 50.6372 30.6882C50.9553 30.9119 51.358 31.0238 51.8453 31.0238ZM65.9434 21.5455V23.9318H59.0454V21.5455H65.9434ZM60.6114 18.8011H63.7883V29.4801C63.7883 29.7734 63.833 30.0021 63.9225 30.1662C64.012 30.3253 64.1363 30.4371 64.2954 30.5018C64.4594 30.5664 64.6483 30.5987 64.8621 30.5987C65.0113 30.5987 65.1604 30.5863 65.3096 30.5614C65.4587 30.5316 65.5731 30.5092 65.6526 30.4943L66.1523 32.8583C65.9932 32.908 65.7694 32.9652 65.4811 33.0298C65.1927 33.0994 64.8422 33.1417 64.4296 33.1566C63.664 33.1864 62.9928 33.0845 62.4161 32.8509C61.8444 32.6172 61.3994 32.2543 61.0812 31.7621C60.7631 31.2699 60.6064 30.6484 60.6114 29.8977V18.8011ZM73.11 33.2237C71.9317 33.2237 70.9175 32.9851 70.0674 32.5078C69.2222 32.0256 68.5709 31.3445 68.1135 30.4645C67.6562 29.5795 67.4275 28.533 67.4275 27.3249C67.4275 26.1467 67.6562 25.1126 68.1135 24.2227C68.5709 23.3327 69.2148 22.6392 70.045 22.142C70.8802 21.6449 71.8596 21.3963 72.9832 21.3963C73.7389 21.3963 74.4424 21.5181 75.0937 21.7617C75.7499 22.0004 76.3216 22.3608 76.8089 22.843C77.301 23.3253 77.6839 23.9318 77.9573 24.6626C78.2307 25.3885 78.3675 26.2386 78.3675 27.2131V28.0856H68.6952V26.1168H75.377C75.377 25.6594 75.2776 25.2543 75.0787 24.9013C74.8799 24.5483 74.604 24.2724 74.251 24.0735C73.903 23.8697 73.4978 23.7678 73.0354 23.7678C72.5532 23.7678 72.1256 23.8796 71.7528 24.1033C71.3849 24.3221 71.0965 24.6179 70.8877 24.9908C70.6789 25.3587 70.572 25.7688 70.567 26.2212V28.093C70.567 28.6598 70.6714 29.1495 70.8802 29.5621C71.094 29.9748 71.3948 30.293 71.7826 30.5167C72.1704 30.7404 72.6302 30.8523 73.1622 30.8523C73.5152 30.8523 73.8383 30.8026 74.1317 30.7031C74.425 30.6037 74.676 30.4545 74.8849 30.2557C75.0937 30.0568 75.2528 29.8132 75.3621 29.5249L78.3003 29.7188C78.1512 30.4247 77.8454 31.0412 77.3831 31.5682C76.9257 32.0902 76.3341 32.4979 75.6082 32.7912C74.8873 33.0795 74.0546 33.2237 73.11 33.2237Z" fill="white"/>
<path d="M94 25.5L100 31.5L110 19.5" stroke="white" stroke-width="2" stroke-linecap="round" stroke-linejoin="round"/>
</svg>
