<svg width="201" height="61" viewBox="0 0 201 61" fill="none" xmlns="http://www.w3.org/2000/svg">
<g filter="url(#filter0_d_405_3192)">
<rect x="4" width="193" height="53" rx="10" fill="#2A3647" shape-rendering="crispEdges"/>
<path d="M28.1019 18.7273V34H25.3129L18.6683 24.3874H18.5565V34H15.3274V18.7273H18.1612L24.7536 28.3324H24.8878V18.7273H28.1019ZM35.9303 34.2237C34.752 34.2237 33.7378 33.9851 32.8877 33.5078C32.0425 33.0256 31.3912 32.3445 30.9339 31.4645C30.4765 30.5795 30.2478 29.533 30.2478 28.3249C30.2478 27.1467 30.4765 26.1126 30.9339 25.2227C31.3912 24.3327 32.0351 23.6392 32.8653 23.142C33.7006 22.6449 34.68 22.3963 35.8035 22.3963C36.5592 22.3963 37.2627 22.5181 37.914 22.7617C38.5702 23.0004 39.142 23.3608 39.6292 23.843C40.1214 24.3253 40.5042 24.9318 40.7776 25.6626C41.051 26.3885 41.1878 27.2386 41.1878 28.2131V29.0856H31.5155V27.1168H38.1974C38.1974 26.6594 38.0979 26.2543 37.8991 25.9013C37.7002 25.5483 37.4243 25.2724 37.0713 25.0735C36.7233 24.8697 36.3181 24.7678 35.8557 24.7678C35.3735 24.7678 34.9459 24.8796 34.5731 25.1033C34.2052 25.3221 33.9168 25.6179 33.708 25.9908C33.4992 26.3587 33.3923 26.7688 33.3873 27.2212V29.093C33.3873 29.6598 33.4917 30.1495 33.7006 30.5621C33.9143 30.9748 34.2151 31.293 34.6029 31.5167C34.9907 31.7404 35.4506 31.8523 35.9825 31.8523C36.3355 31.8523 36.6586 31.8026 36.952 31.7031C37.2453 31.6037 37.4964 31.4545 37.7052 31.2557C37.914 31.0568 38.0731 30.8132 38.1824 30.5249L41.1207 30.7188C40.9715 31.4247 40.6657 32.0412 40.2034 32.5682C39.746 33.0902 39.1544 33.4979 38.4285 33.7912C37.7077 34.0795 36.8749 34.2237 35.9303 34.2237ZM45.4385 34L42.3213 22.5455H45.5354L47.3103 30.2415H47.4147L49.2641 22.5455H52.4186L54.2979 30.1967H54.3948L56.1398 22.5455H59.3465L56.2368 34H52.8735L50.9047 26.7962H50.7631L48.7943 34H45.4385ZM71.077 34.2237C69.9037 34.2237 68.8944 33.9751 68.0493 33.478C67.2091 32.9759 66.5628 32.2798 66.1104 31.3899C65.6629 30.5 65.4392 29.4759 65.4392 28.3175C65.4392 27.1442 65.6654 26.1151 66.1178 25.2301C66.5752 24.3402 67.224 23.6467 68.0642 23.1495C68.9044 22.6474 69.9037 22.3963 71.0621 22.3963C72.0613 22.3963 72.9363 22.5778 73.6871 22.9407C74.4378 23.3036 75.0319 23.8132 75.4694 24.4695C75.9069 25.1257 76.148 25.8963 76.1927 26.7812H73.1949C73.1104 26.2095 72.8866 25.7496 72.5237 25.4016C72.1657 25.0487 71.6959 24.8722 71.1143 24.8722C70.6221 24.8722 70.192 25.0064 69.8241 25.2749C69.4612 25.5384 69.1778 25.9237 68.974 26.4308C68.7702 26.9379 68.6682 27.5518 68.6682 28.2727C68.6682 29.0036 68.7677 29.625 68.9665 30.1371C69.1704 30.6491 69.4562 31.0394 69.8241 31.3079C70.192 31.5763 70.6221 31.7106 71.1143 31.7106C71.4772 31.7106 71.8028 31.636 72.0912 31.4869C72.3845 31.3377 72.6256 31.1214 72.8145 30.8381C73.0084 30.5497 73.1352 30.2042 73.1949 29.8015H76.1927C76.143 30.6765 75.9044 31.4471 75.4768 32.1133C75.0542 32.7745 74.4701 33.2915 73.7243 33.6644C72.9786 34.0373 72.0961 34.2237 71.077 34.2237ZM83.4022 34.2237C82.2438 34.2237 81.242 33.9776 80.3968 33.4854C79.5566 32.9883 78.9078 32.2972 78.4505 31.4123C77.9931 30.5224 77.7644 29.4908 77.7644 28.3175C77.7644 27.1342 77.9931 26.1001 78.4505 25.2152C78.9078 24.3253 79.5566 23.6342 80.3968 23.142C81.242 22.6449 82.2438 22.3963 83.4022 22.3963C84.5605 22.3963 85.5598 22.6449 86.4 23.142C87.2452 23.6342 87.8965 24.3253 88.3539 25.2152C88.8113 26.1001 89.04 27.1342 89.04 28.3175C89.04 29.4908 88.8113 30.5224 88.3539 31.4123C87.8965 32.2972 87.2452 32.9883 86.4 33.4854C85.5598 33.9776 84.5605 34.2237 83.4022 34.2237ZM83.4171 31.7628C83.9441 31.7628 84.3841 31.6136 84.737 31.3153C85.09 31.0121 85.356 30.5994 85.535 30.0774C85.7189 29.5554 85.8109 28.9613 85.8109 28.2951C85.8109 27.6289 85.7189 27.0348 85.535 26.5128C85.356 25.9908 85.09 25.5781 84.737 25.2749C84.3841 24.9716 83.9441 24.82 83.4171 24.82C82.8851 24.82 82.4377 24.9716 82.0748 25.2749C81.7168 25.5781 81.4458 25.9908 81.2619 26.5128C81.0829 27.0348 80.9934 27.6289 80.9934 28.2951C80.9934 28.9613 81.0829 29.5554 81.2619 30.0774C81.4458 30.5994 81.7168 31.0121 82.0748 31.3153C82.4377 31.6136 82.8851 31.7628 83.4171 31.7628ZM94.2825 27.3778V34H91.1056V22.5455H94.1333V24.5664H94.2676C94.5211 23.9002 94.9462 23.3732 95.5428 22.9854C96.1394 22.5927 96.8627 22.3963 97.7129 22.3963C98.5083 22.3963 99.2019 22.5703 99.7935 22.9183C100.385 23.2663 100.845 23.7635 101.173 24.4098C101.501 25.0511 101.665 25.8168 101.665 26.7067V34H98.4885V27.2734C98.4934 26.5724 98.3145 26.0256 97.9515 25.6328C97.5886 25.2351 97.089 25.0362 96.4526 25.0362C96.025 25.0362 95.6472 25.1282 95.3191 25.3121C94.9959 25.4961 94.7424 25.7646 94.5584 26.1175C94.3794 26.4656 94.2875 26.8857 94.2825 27.3778ZM110.262 22.5455V24.9318H103.364V22.5455H110.262ZM104.93 19.8011H108.107V30.4801C108.107 30.7734 108.151 31.0021 108.241 31.1662C108.33 31.3253 108.455 31.4371 108.614 31.5018C108.778 31.5664 108.967 31.5987 109.18 31.5987C109.33 31.5987 109.479 31.5863 109.628 31.5614C109.777 31.5316 109.891 31.5092 109.971 31.4943L110.471 33.8583C110.312 33.908 110.088 33.9652 109.799 34.0298C109.511 34.0994 109.161 34.1417 108.748 34.1566C107.982 34.1864 107.311 34.0845 106.734 33.8509C106.163 33.6172 105.718 33.2543 105.4 32.7621C105.081 32.2699 104.925 31.6484 104.93 30.8977V19.8011ZM115.598 34.2163C114.867 34.2163 114.215 34.0895 113.644 33.8359C113.072 33.5774 112.62 33.1971 112.286 32.695C111.958 32.1879 111.794 31.5565 111.794 30.8008C111.794 30.1644 111.911 29.63 112.145 29.1974C112.378 28.7649 112.697 28.4169 113.099 28.1534C113.502 27.8899 113.959 27.6911 114.472 27.5568C114.989 27.4226 115.53 27.3281 116.097 27.2734C116.763 27.2038 117.3 27.1392 117.708 27.0795C118.116 27.0149 118.411 26.9205 118.595 26.7962C118.779 26.6719 118.871 26.4879 118.871 26.2443V26.1996C118.871 25.7273 118.722 25.3619 118.424 25.1033C118.131 24.8448 117.713 24.7156 117.171 24.7156C116.599 24.7156 116.144 24.8423 115.806 25.0959C115.468 25.3445 115.245 25.6577 115.135 26.0355L112.197 25.7969C112.346 25.1009 112.639 24.4993 113.077 23.9922C113.514 23.4801 114.079 23.0874 114.77 22.8139C115.466 22.5355 116.271 22.3963 117.186 22.3963C117.822 22.3963 118.431 22.4709 119.013 22.62C119.6 22.7692 120.119 23.0004 120.572 23.3136C121.029 23.6268 121.389 24.0295 121.653 24.5217C121.916 25.0089 122.048 25.593 122.048 26.2741V34H119.035V32.4116H118.946C118.762 32.7695 118.516 33.0852 118.208 33.3587C117.899 33.6271 117.529 33.8384 117.097 33.9925C116.664 34.1417 116.164 34.2163 115.598 34.2163ZM116.507 32.0238C116.975 32.0238 117.387 31.9318 117.745 31.7479C118.103 31.5589 118.384 31.3054 118.588 30.9872C118.792 30.669 118.894 30.3086 118.894 29.9059V28.6903C118.794 28.755 118.658 28.8146 118.484 28.8693C118.315 28.919 118.123 28.9663 117.909 29.011C117.696 29.0508 117.482 29.0881 117.268 29.1229C117.054 29.1527 116.86 29.18 116.686 29.2049C116.313 29.2596 115.988 29.3466 115.709 29.4659C115.431 29.5852 115.215 29.7468 115.061 29.9506C114.907 30.1495 114.829 30.3981 114.829 30.6964C114.829 31.1289 114.986 31.4595 115.299 31.6882C115.617 31.9119 116.02 32.0238 116.507 32.0238ZM129.688 34.2237C128.515 34.2237 127.506 33.9751 126.661 33.478C125.82 32.9759 125.174 32.2798 124.722 31.3899C124.274 30.5 124.051 29.4759 124.051 28.3175C124.051 27.1442 124.277 26.1151 124.729 25.2301C125.187 24.3402 125.835 23.6467 126.676 23.1495C127.516 22.6474 128.515 22.3963 129.673 22.3963C130.673 22.3963 131.548 22.5778 132.298 22.9407C133.049 23.3036 133.643 23.8132 134.081 24.4695C134.518 25.1257 134.759 25.8963 134.804 26.7812H131.806C131.722 26.2095 131.498 25.7496 131.135 25.4016C130.777 25.0487 130.307 24.8722 129.726 24.8722C129.233 24.8722 128.803 25.0064 128.435 25.2749C128.073 25.5384 127.789 25.9237 127.585 26.4308C127.381 26.9379 127.28 27.5518 127.28 28.2727C127.28 29.0036 127.379 29.625 127.578 30.1371C127.782 30.6491 128.068 31.0394 128.435 31.3079C128.803 31.5763 129.233 31.7106 129.726 31.7106C130.089 31.7106 130.414 31.636 130.703 31.4869C130.996 31.3377 131.237 31.1214 131.426 30.8381C131.62 30.5497 131.747 30.2042 131.806 29.8015H134.804C134.754 30.6765 134.516 31.4471 134.088 32.1133C133.666 32.7745 133.081 33.2915 132.336 33.6644C131.59 34.0373 130.707 34.2237 129.688 34.2237ZM142.931 22.5455V24.9318H136.033V22.5455H142.931ZM137.599 19.8011H140.776V30.4801C140.776 30.7734 140.82 31.0021 140.91 31.1662C140.999 31.3253 141.124 31.4371 141.283 31.5018C141.447 31.5664 141.636 31.5987 141.849 31.5987C141.999 31.5987 142.148 31.5863 142.297 31.5614C142.446 31.5316 142.56 31.5092 142.64 31.4943L143.14 33.8583C142.98 33.908 142.757 33.9652 142.468 34.0298C142.18 34.0994 141.83 34.1417 141.417 34.1566C140.651 34.1864 139.98 34.0845 139.403 33.8509C138.832 33.6172 138.387 33.2543 138.069 32.7621C137.75 32.2699 137.594 31.6484 137.599 30.8977V19.8011Z" fill="white"/>
<path d="M166.747 27.8507C165.145 27.8507 163.578 27.3755 162.246 26.4853C160.914 25.5951 159.875 24.3298 159.262 22.8494C158.649 21.3691 158.489 19.7401 158.801 18.1685C159.114 16.597 159.885 15.1534 161.018 14.0204C162.151 12.8873 163.595 12.1157 165.167 11.8031C166.738 11.4905 168.367 11.651 169.847 12.2642C171.328 12.8774 172.593 13.9158 173.483 15.2481C174.374 16.5804 174.849 18.1467 174.849 19.7491C174.844 21.8963 173.989 23.9542 172.471 25.4725C170.952 26.9909 168.894 27.8459 166.747 27.8507ZM166.747 13.4478C165.501 13.4478 164.283 13.8174 163.246 14.5098C162.21 15.2022 161.402 16.1863 160.926 17.3377C160.449 18.4891 160.324 19.7561 160.567 20.9784C160.81 22.2007 161.41 23.3235 162.291 24.2047C163.173 25.086 164.295 25.6861 165.518 25.9293C166.74 26.1724 168.007 26.0476 169.159 25.5707C170.31 25.0938 171.294 24.2861 171.986 23.2499C172.679 22.2136 173.048 20.9954 173.048 19.7491C173.048 18.0779 172.385 16.4751 171.203 15.2934C170.021 14.1117 168.418 13.4478 166.747 13.4478Z" fill="white"/>
<path d="M173.048 41.353H154L154.162 40.3088C154.559 37.1625 156.074 34.2639 158.43 32.142C160.787 30.02 163.828 28.8163 166.999 28.7505C168.638 28.7361 170.265 29.0419 171.788 29.6507C171.901 29.6936 172.004 29.7589 172.092 29.8428C172.179 29.9267 172.249 30.0273 172.296 30.1387C172.344 30.2501 172.369 30.37 172.369 30.4911C172.369 30.6123 172.345 30.7322 172.297 30.8438C172.25 30.9553 172.181 31.0562 172.094 31.1403C172.006 31.2244 171.903 31.29 171.79 31.3333C171.677 31.3765 171.556 31.3965 171.435 31.392C171.314 31.3875 171.195 31.3586 171.085 31.307C169.791 30.7654 168.402 30.484 166.999 30.4788C164.447 30.5424 161.992 31.4661 160.031 33.1C158.07 34.734 156.719 36.9824 156.196 39.4806H173.102C173.341 39.4806 173.57 39.5755 173.738 39.7443C173.907 39.9131 174.002 40.1421 174.002 40.3808C174.002 40.6195 173.907 40.8485 173.738 41.0173C173.57 41.1861 173.341 41.281 173.102 41.281L173.048 41.353Z" fill="white"/>
<path d="M179.798 26.9502C178.408 26.9512 177.048 27.3546 175.881 28.1117C174.715 28.8689 173.793 29.9474 173.227 31.217C172.807 32.138 172.592 33.1393 172.597 34.1516C172.597 35.5759 173.019 36.9683 173.81 38.1525C174.602 39.3368 175.726 40.2598 177.042 40.8049C178.358 41.35 179.806 41.4926 181.203 41.2147C182.6 40.9368 183.883 40.251 184.89 39.2438C185.898 38.2367 186.583 36.9535 186.861 35.5566C187.139 34.1596 186.997 32.7117 186.451 31.3958C185.906 30.0799 184.983 28.9552 183.799 28.1639C182.615 27.3726 181.223 26.9502 179.798 26.9502ZM183.399 35.1238H180.77V37.7524C180.77 38.0102 180.668 38.2575 180.486 38.4398C180.303 38.6221 180.056 38.7245 179.798 38.7245C179.54 38.7245 179.293 38.6221 179.111 38.4398C178.928 38.2575 178.826 38.0102 178.826 37.7524V35.0518H176.197C176.07 35.0518 175.943 35.0267 175.825 34.9778C175.707 34.929 175.6 34.8573 175.51 34.7671C175.42 34.6768 175.348 34.5696 175.299 34.4517C175.25 34.3337 175.225 34.2073 175.225 34.0796C175.224 33.9061 175.271 33.7356 175.36 33.5865C175.449 33.4374 175.576 33.3153 175.729 33.2334C175.868 33.1436 176.032 33.0995 176.197 33.1074H178.826V30.5509C178.826 30.2931 178.928 30.0458 179.111 29.8635C179.293 29.6811 179.54 29.5787 179.798 29.5787C180.056 29.5787 180.303 29.6811 180.486 29.8635C180.668 30.0458 180.77 30.2931 180.77 30.5509V33.2515H183.399C183.657 33.2515 183.904 33.3539 184.086 33.5362C184.269 33.7185 184.371 33.9658 184.371 34.2236C184.371 34.4815 184.269 34.7288 184.086 34.9111C183.904 35.0934 183.657 35.1958 183.399 35.1958V35.1238Z" fill="white"/>
<rect x="4.5" y="0.5" width="192" height="52" rx="9.5" stroke="#2A3647" shape-rendering="crispEdges"/>
</g>
<defs>
<filter id="filter0_d_405_3192" x="0" y="0" width="201" height="61" filterUnits="userSpaceOnUse" color-interpolation-filters="sRGB">
<feFlood flood-opacity="0" result="BackgroundImageFix"/>
<feColorMatrix in="SourceAlpha" type="matrix" values="0 0 0 0 0 0 0 0 0 0 0 0 0 0 0 0 0 0 127 0" result="hardAlpha"/>
<feOffset dy="4"/>
<feGaussianBlur stdDeviation="2"/>
<feComposite in2="hardAlpha" operator="out"/>
<feColorMatrix type="matrix" values="0 0 0 0 0 0 0 0 0 0 0 0 0 0 0 0 0 0 0.25 0"/>
<feBlend mode="normal" in2="BackgroundImageFix" result="effect1_dropShadow_405_3192"/>
<feBlend mode="normal" in="SourceGraphic" in2="effect1_dropShadow_405_3192" result="shape"/>
</filter>
</defs>
</svg>
